<?xml version="1.0" ?>
<!DOCTYPE svg  PUBLIC '-//W3C//DTD SVG 1.1//EN'  'http://www.w3.org/Graphics/SVG/1.1/DTD/svg11.dtd'>
<!-- Uploaded to: SVG Repo, www.svgrepo.com, Generator: SVG Repo Mixer Tools -->
<svg width="800px" height="800px" viewBox="0 0 512 512" enable-background="new 0 0 512 512" id="Layer_1" version="1.1" xml:space="preserve" xmlns="http://www.w3.org/2000/svg" xmlns:xlink="http://www.w3.org/1999/xlink">
<g>
<g>
<path d="M397.199,445.814h-283c-5.523,0-10-4.478-10-10V75.838c0-5.522,4.477-10,10-10h283c5.523,0,10,4.478,10,10    v359.977C407.199,441.337,402.722,445.814,397.199,445.814z M124.199,425.814h263V85.838h-263V425.814z" fill="#444B54"/>
</g>
<g>
<path d="M397.801,290.492H260.596c-5.523,0-10-4.478-10-10v-203.5c0-5.522,4.477-10,10-10h137.205    c5.523,0,10,4.478,10,10v203.5C407.801,286.015,403.324,290.492,397.801,290.492z M270.596,270.492h117.205v-183.5H270.596    V270.492z" fill="#444B54"/>
</g>
<g>
<path d="M261.332,290.492H114.873c-5.523,0-10-4.478-10-10v-203.5c0-5.522,4.477-10,10-10h146.459    c5.523,0,10,4.478,10,10v203.5C271.332,286.015,266.855,290.492,261.332,290.492z M124.873,270.492h126.459v-183.5H124.873    V270.492z" fill="#444B54"/>
</g>
<g>
<path d="M397.199,368.328H114.873c-5.523,0-10-4.478-10-10v-77.836c0-5.522,4.477-10,10-10h282.326    c5.523,0,10,4.478,10,10v77.836C407.199,363.851,402.722,368.328,397.199,368.328z M124.873,348.328h262.326v-57.836H124.873    V348.328z" fill="#444B54"/>
</g>
<g>
<path d="M397.199,446.162H114.873c-5.523,0-10-4.478-10-10v-77.834c0-5.522,4.477-10,10-10h282.326    c5.523,0,10,4.478,10,10v77.834C407.199,441.685,402.722,446.162,397.199,446.162z M124.873,426.162h262.326v-57.834H124.873    V426.162z" fill="#444B54"/>
</g>
<g>
<path d="M266.199,329.41h-17c-5.523,0-10-4.478-10-10s4.477-10,10-10h17c5.523,0,10,4.478,10,10    S271.722,329.41,266.199,329.41z" fill="#444B54"/>
</g>
<g>
<path d="M269.832,407.244h-17c-5.523,0-10-4.478-10-10s4.477-10,10-10h17c5.523,0,10,4.478,10,10    S275.355,407.244,269.832,407.244z" fill="#444B54"/>
</g>
<g>
<path d="M287.199,196.992c-5.523,0-10-4.478-10-10v-22.666c0-5.522,4.477-10,10-10s10,4.478,10,10v22.666    C297.199,192.515,292.722,196.992,287.199,196.992z" fill="#444B54"/>
</g>
<g>
<path d="M145.032,127.492c-2.56,0-5.118-0.977-7.071-2.929c-3.905-3.905-3.905-10.237,0-14.143l13.167-13.166    c3.905-3.904,10.236-3.903,14.142,0c3.905,3.905,3.905,10.237,0,14.143l-13.167,13.166    C150.15,126.516,147.591,127.492,145.032,127.492z" fill="#444B54"/>
</g>
<g>
<path d="M155.865,157.326c-2.559,0-5.119-0.977-7.071-2.929c-3.905-3.905-3.905-10.237,0-14.143l38-38    c3.905-3.904,10.237-3.904,14.143,0c3.905,3.905,3.905,10.237,0,14.143l-38,38C160.983,156.35,158.424,157.326,155.865,157.326z" fill="#444B54"/>
</g>
<g>
<path d="M397.199,445.814h-283c-5.523,0-10-4.478-10-10V75.838c0-5.522,4.477-10,10-10h283c5.523,0,10,4.478,10,10    v359.977C407.199,441.337,402.722,445.814,397.199,445.814z M124.199,425.814h263V85.838h-263V425.814z" fill="#444B54"/>
</g>
<g>
<rect fill="#8F8F99" height="203.5" width="137.205" x="260.596" y="76.992"/>
<path d="M397.801,290.492H260.596c-5.523,0-10-4.478-10-10v-203.5c0-5.522,4.477-10,10-10h137.205    c5.523,0,10,4.478,10,10v203.5C407.801,286.015,403.324,290.492,397.801,290.492z M270.596,270.492h117.205v-183.5H270.596    V270.492z" fill="#444B54"/>
</g>
<g>
<rect fill="#55939C" height="203.5" width="146.459" x="114.873" y="76.992"/>
<path d="M261.332,290.492H114.873c-5.523,0-10-4.478-10-10v-203.5c0-5.522,4.477-10,10-10h146.459    c5.523,0,10,4.478,10,10v203.5C271.332,286.015,266.855,290.492,261.332,290.492z M124.873,270.492h126.459v-183.5H124.873    V270.492z" fill="#444B54"/>
</g>
<g>
<rect fill="#D0C144" height="77.836" width="282.326" x="114.873" y="280.492"/>
<path d="M397.199,368.328H114.873c-5.523,0-10-4.478-10-10v-77.836c0-5.522,4.477-10,10-10h282.326    c5.523,0,10,4.478,10,10v77.836C407.199,363.851,402.722,368.328,397.199,368.328z M124.873,348.328h262.326v-57.836H124.873    V348.328z" fill="#444B54"/>
</g>
<g>
<rect fill="#55939C" height="77.834" width="282.326" x="114.873" y="358.328"/>
<path d="M397.199,446.162H114.873c-5.523,0-10-4.478-10-10v-77.834c0-5.522,4.477-10,10-10h282.326    c5.523,0,10,4.478,10,10v77.834C407.199,441.685,402.722,446.162,397.199,446.162z M124.873,426.162h262.326v-57.834H124.873    V426.162z" fill="#444B54"/>
</g>
<g>
<path d="M266.199,329.41h-17c-5.523,0-10-4.478-10-10s4.477-10,10-10h17c5.523,0,10,4.478,10,10    S271.722,329.41,266.199,329.41z" fill="#444B54"/>
</g>
<g>
<path d="M269.832,407.244h-17c-5.523,0-10-4.478-10-10s4.477-10,10-10h17c5.523,0,10,4.478,10,10    S275.355,407.244,269.832,407.244z" fill="#444B54"/>
</g>
<g>
<path d="M287.199,196.992c-5.523,0-10-4.478-10-10v-22.666c0-5.522,4.477-10,10-10s10,4.478,10,10v22.666    C297.199,192.515,292.722,196.992,287.199,196.992z" fill="#444B54"/>
</g>
<g>
<path d="M145.032,127.492c-2.56,0-5.118-0.977-7.071-2.929c-3.905-3.905-3.905-10.237,0-14.143l13.167-13.166    c3.905-3.904,10.236-3.903,14.142,0c3.905,3.905,3.905,10.237,0,14.143l-13.167,13.166    C150.15,126.516,147.591,127.492,145.032,127.492z" fill="#444B54"/>
</g>
<g>
<path d="M155.865,157.326c-2.559,0-5.119-0.977-7.071-2.929c-3.905-3.905-3.905-10.237,0-14.143l38-38    c3.905-3.904,10.237-3.904,14.143,0c3.905,3.905,3.905,10.237,0,14.143l-38,38C160.983,156.35,158.424,157.326,155.865,157.326z" fill="#444B54"/>
</g>
</g>
</svg>